<svg xmlns="http://www.w3.org/2000/svg" viewBox="0 0 135 40"><path d="M117.5 36.2H16.1c-2.1 0-3.8-1.7-3.8-3.8V7.7c0-2.1 1.7-3.8 3.8-3.8h101.3c2.1 0 3.9 1.7 3.9 3.8v24.7c.1 2.1-1.7 3.8-3.8 3.8z" fill="#a6a6a6"/><path d="M120.6 32.4c0 1.7-1.4 3.1-3.1 3.1H16.1c-1.7 0-3.1-1.4-3.1-3.1V7.7c0-1.7 1.4-3.1 3.1-3.1h101.3c1.7 0 3.1 1.4 3.1 3.1l.1 24.7z"/><path d="M36.7 19.9c0-2.6 2.1-3.9 2.2-4-1.2-1.8-3.1-2-3.8-2.1-1.6-.2-3.2 1-4 1s-2.1-.9-3.4-.9c-1.7 0-3.4 1-4.2 2.6-1.8 3.2-.5 7.8 1.3 10.4.9 1.3 1.9 2.7 3.2 2.6 1.3 0 1.8-.8 3.4-.8 1.6 0 2 .8 3.4.8s2.3-1.3 3.2-2.5c1-1.5 1.4-2.9 1.5-2.9-.1-.1-2.8-1.1-2.8-4.2zm-2.6-7.7c.7-.9 1.2-2.1 1.1-3.3-1 0-2.3.7-3 1.6-.6.8-1.3 2-1.1 3.2 1 0 2.2-.6 3-1.5zm21.5 17.1h-1.8l-1-3.2h-3.5l-1 3.2h-1.8L50 18.6h2.1l3.5 10.7zm-3.1-4.5l-.9-2.8c-.1-.3-.3-1-.5-2-.1.4-.3 1.1-.5 2l-.9 2.8h2.8zm12 .6c0 1.3-.4 2.3-1.1 3.1-.6.7-1.4 1-2.4 1s-1.7-.4-2.2-1.1v4.1h-1.7v-8.4c0-.8 0-1.7-.1-2.5h1.5l.1 1.2c.6-.9 1.5-1.4 2.6-1.4.9 0 1.7.4 2.3 1.1.7.7 1 1.7 1 2.9zm-1.7 0c0-.8-.2-1.4-.5-1.9-.4-.5-.9-.8-1.5-.8-.4 0-.8.2-1.2.4-.4.3-.6.6-.7 1.1 0 .2-.1.4-.1.5V26c0 .6.2 1.1.5 1.4.4.4.8.6 1.3.6.6 0 1.2-.2 1.5-.8.5-.3.7-.9.7-1.8zm10.7 0c0 1.3-.4 2.3-1.1 3.1-.6.7-1.4 1-2.4 1s-1.7-.4-2.2-1.1v4.1h-1.7v-8.4c0-.8 0-1.7-.1-2.5h1.5l.1 1.2c.6-.9 1.5-1.4 2.6-1.4.9 0 1.7.4 2.3 1.1.6.7 1 1.7 1 2.9zm-1.8 0c0-.8-.2-1.4-.5-1.9-.4-.5-.9-.8-1.5-.8-.4 0-.8.2-1.2.4-.4.3-.6.6-.7 1.1 0 .2-.1.4-.1.5V26c0 .6.2 1.1.5 1.4.4.4.8.6 1.3.6.6 0 1.2-.2 1.5-.8.5-.3.7-.9.7-1.8zm11.7.9c0 .9-.3 1.7-1 2.2-.7.6-1.7.9-2.9.9s-2.1-.2-2.8-.7l.4-1.5c.8.4 1.6.7 2.5.7.6 0 1.2-.2 1.5-.4s.5-.7.5-1.2c0-.4-.2-.8-.4-1.1-.3-.3-.8-.6-1.5-.8-1.9-.7-2.8-1.7-2.8-3.1 0-.9.3-1.6 1-2.2s1.5-.8 2.6-.8c1 0 1.8.2 2.4.5l-.4 1.4c-.6-.3-1.3-.5-2.1-.5-.6 0-1.1.2-1.4.4-.3.3-.4.6-.4 1s.2.8.5 1.1c.3.2.8.5 1.6.8.9.4 1.6.8 2.1 1.3.4.7.6 1.3.6 2zm5.7-3.4h-1.9v3.8c0 1 .3 1.5 1 1.5.3 0 .6 0 .8-.1v1.3c-.3.1-.8.2-1.3.2-.7 0-1.2-.2-1.6-.6-.4-.4-.6-1.1-.6-2.1V23h-1.2v-1.3h1.1v-1.4l1.7-.5v1.9H89v1.2zm8.6 2.5c0 1.2-.3 2.2-1 2.9-.7.8-1.7 1.2-2.8 1.2-1.1 0-2.1-.4-2.7-1.1s-1-1.7-1-2.9.4-2.2 1.1-2.9 1.6-1.1 2.8-1.1c1.1 0 2.1.4 2.7 1.1.6.7.9 1.6.9 2.8zm-1.8 0c0-.7-.2-1.3-.4-1.9-.4-.6-.9-.9-1.5-.9-.7 0-1.2.3-1.6.9-.3.5-.4 1.1-.4 1.9s.2 1.3.4 1.9c.4.6.9.9 1.6.9.6 0 1.2-.3 1.5-.9.3-.5.4-1.1.4-1.9zm7.4-2.3h-.5c-.6 0-1.1.2-1.4.7-.3.4-.4.9-.4 1.5v4h-1.7V24c0-.9 0-1.7-.1-2.4h1.5l.1 1.5c.2-.5.5-.9.8-1.2s.8-.4 1.3-.4h.4v1.6zm7.7 2c0 .3 0 .6-.1.8h-5.2c0 .8.3 1.3.8 1.7.4.4 1 .5 1.7.5.8 0 1.5-.1 2.1-.4l.3 1.2c-.7.3-1.6.5-2.6.5-1.2 0-2.1-.4-2.8-1.1-.7-.7-1-1.7-1-2.8 0-1.2.3-2.1 1-2.9.7-.8 1.6-1.3 2.7-1.3s2 .4 2.5 1.3c.3.7.6 1.5.6 2.5zm-1.7-.5c0-.5-.1-1-.3-1.3-.3-.5-.8-.7-1.4-.7-.6 0-1 .2-1.4.7-.3.4-.4.8-.5 1.3h3.6zM51.9 12c0 1-.3 1.7-.8 2.1-.5.4-1.3.7-2.3.7-.5 0-.9 0-1.3-.1V9.5c.5 0 1-.1 1.5-.1.9 0 1.6.2 2.1.6.5.5.8 1.1.8 2zm-.9 0c0-.6-.2-1.1-.5-1.4-.3-.3-.8-.5-1.4-.5h-.7v4h.6c.6 0 1.1-.2 1.5-.5.4-.4.5-.9.5-1.6zm5.7.8c0 .6-.2 1.1-.5 1.5-.4.4-.8.6-1.4.6-.6 0-1-.2-1.3-.6-.3-.4-.5-.8-.5-1.4 0-.6.2-1.1.5-1.5.4-.4.8-.6 1.4-.6s1 .2 1.3.6c.3.4.5.8.5 1.4zm-.9 0c0-.4-.1-.6-.2-.9-.2-.3-.4-.4-.8-.4-.3 0-.6.2-.8.4-.2.2-.2.6-.2.9s.1.6.2.9c.2.3.4.4.8.4.3 0 .6-.2.8-.4.1-.2.2-.5.2-.9zm7.2-1.9l-1.2 3.8H61l-.4-1.7-.3-1.2L60 13l-.5 1.7h-.8l-1.1-3.8h.9l.4 1.8c.1.4.2.8.2 1.2.1-.3.2-.7.3-1.2l.5-1.8h.7l.5 1.8c.1.4.2.8.3 1.3 0-.4.2-.8.2-1.3l.4-1.8h1zm4.4 3.8h-.8v-2.2c0-.7-.2-1-.8-1-.2 0-.4.1-.6.3-.2.2-.2.4-.2.6v2.3h-.8v-3.8h.7v.6c.1-.2.2-.3.4-.4.2-.2.5-.2.8-.2.4 0 .6.1.9.4.3.3.4.7.4 1.3v2.1zm2.3 0h-.8V9.2h.8v5.5zm5-1.9c0 .6-.2 1.1-.5 1.5-.4.4-.8.6-1.4.6-.6 0-1-.2-1.3-.6-.3-.4-.5-.8-.5-1.4 0-.6.2-1.1.5-1.5s.8-.6 1.4-.6 1 .2 1.3.6.5.8.5 1.4zm-.9 0c0-.4-.1-.6-.2-.9-.2-.3-.4-.4-.8-.4-.3 0-.6.2-.8.4-.2.2-.2.6-.2.9s.1.6.2.9c.2.3.4.4.8.4.3 0 .6-.2.8-.4.1-.2.2-.5.2-.9zm5 1.9H78v-.4c-.2.4-.6.5-1.1.5-.4 0-.6-.1-.9-.4-.2-.2-.3-.5-.3-.8 0-.5.2-.8.6-1.1.4-.2.9-.4 1.7-.4V12c0-.5-.3-.8-.8-.8-.4 0-.7.1-1 .3l-.2-.6c.4-.2.8-.3 1.3-.3 1 0 1.5.5 1.5 1.6v1.4c-.1.6 0 .9 0 1.1zm-.9-1.3v-.6c-.9 0-1.4.2-1.4.8 0 .2 0 .4.2.4.1.1.2.2.4.2s.4 0 .5-.2c.2-.1.2-.3.3-.4v-.2zm5.7 1.3h-.8v-.6c-.2.5-.6.7-1.2.7-.4 0-.8-.2-1.1-.5s-.5-.8-.5-1.4.2-1.1.5-1.5.7-.5 1.2-.5.9.2 1.1.5V9.2h.8v5.5zm-.9-1.6v-.9c0-.2-.2-.4-.3-.5-.2-.1-.4-.2-.6-.2-.3 0-.6.1-.7.4-.2.2-.3.6-.3 1s.1.7.2.9c.2.2.4.4.7.4.3 0 .5-.1.7-.3.3-.3.3-.5.3-.8zm8.2-.3c0 .6-.2 1.1-.5 1.5-.4.4-.8.6-1.4.6-.6 0-1-.2-1.3-.6-.3-.4-.5-.8-.5-1.4 0-.6.2-1.1.5-1.5s.8-.6 1.4-.6 1 .2 1.3.6.5.8.5 1.4zm-.9 0c0-.4-.1-.6-.2-.9-.2-.3-.4-.4-.8-.4s-.6.2-.8.4c-.2.3-.2.6-.2.9s.1.6.2.9c.2.3.4.4.8.4s.6-.2.8-.4c.1-.2.2-.5.2-.9zm5.4 1.9h-.8v-2.2c0-.7-.2-1-.8-1-.2 0-.4.1-.6.3-.2.2-.2.4-.2.7v2.3h-.8v-3.9h.7v.6c.1-.2.2-.3.4-.4.2-.2.5-.2.8-.2.4 0 .6.1.9.4.3.3.4.7.4 1.3v2.1zm5.7-3.1h-.9v1.9c0 .5.2.7.5.7h.4v.6c-.2.1-.4.1-.6.1-.3 0-.6-.1-.8-.3-.2-.2-.3-.5-.3-1v-1.9h-.6v-.6h.6v-.7l.8-.2v.9h.9v.5zm4.5 3.1h-.8v-2.2c0-.7-.2-1-.8-1-.4 0-.6.2-.8.6v2.6h-.8V9.2h.8v2.3c.3-.4.6-.6 1.1-.6.4 0 .6.1.9.4.3.3.4.7.4 1.3v2.1zm4.6-2.1v.4h-2.5c0 .4.1.6.4.8.2.2.5.3.8.3.4 0 .7 0 1-.2l.1.6c-.4.2-.8.2-1.3.2-.6 0-1.1-.2-1.4-.5s-.5-.8-.5-1.4c0-.6.2-1.1.5-1.4.3-.4.8-.6 1.3-.6.6 0 1 .2 1.3.6.2.4.3.8.3 1.2zm-.8-.2c0-.2 0-.5-.2-.6-.2-.2-.4-.4-.7-.4-.3 0-.5.1-.7.4-.1.2-.2.4-.2.6h1.8z" fill="#fff"/></svg>