<svg xmlns="http://www.w3.org/2000/svg" viewBox="0 0 1920 1080"><path d="M1868.3 187.3c-22.5-35.6-62.4-59-107.6-58.3-11.6.2-22.9 2-33.5 5.1-24.6-23.9-58.2-38.4-95.2-37.9-22 .3-42.6 6-60.7 15.7-13.1-7.9-28.6-12.4-45.1-12.2-34.5.5-63.8 21.6-76.6 51.4-13.9-18-35.8-29.4-60.2-29.1-12.9.2-25 3.7-35.5 9.6-31.4-42.9-82.3-70.4-139.5-69.5-44 .7-83.8 18.1-113.5 46.1-18.5-14.7-42.1-23.4-67.5-23-29.8.5-56.6 13.3-75.5 33.4-8.9-43.3-47.8-75-93-74.1-1 0-2 0-3 .1-39.1 2.1-71.1 27.9-83.1 62.8-28.1-16.8-61.3-25.7-96.5-23.8-46.4 2.5-87.6 23.2-116.8 54.9-20.8-10-44.4-15-69.1-13.8-9.1.5-18 1.8-26.5 3.9-36.1-43.3-91.4-69.6-152-66.4-51.8 2.7-97.5 26.5-129.2 62.6-10.8-2.1-22.1-3-33.5-2.4-37.3 2-70.3 19-93.3 44.8-2.1 2.2-4.1 4.4-6.1 6.8-3.5 4.1-6.7 8.6-9.6 13.2-6.1-6.1-13-11.1-20.6-15.1-11.4-5.9-24.1-9.3-37.1-9.6V1092H1926V162.7c-21.7.4-42.4 9.3-57.7 24.6z" fill="#fbfbfb"/></svg>