<svg xmlns="http://www.w3.org/2000/svg" viewBox="0 0 4251.9 453"><path d="M4125.3 312.9c-49.4-78.1-137-129.4-236.2-127.9-25.5.4-50.2 4.3-73.6 11.2-53.9-52.5-127.8-84.3-209-83.1-48.2.7-93.5 13.1-133.3 34.4-28.8-17.4-62.7-27.3-98.9-26.7-75.7 1.2-140.1 47.5-168.1 112.9-30.5-39.5-78.5-64.6-132.2-63.8-28.3.4-54.8 8.1-77.9 21.1-68.8-94.1-180.7-154.5-306.1-152.5-96.6 1.5-183.9 39.7-249.1 101.1-40.6-32.3-92.3-51.3-148.2-50.4-65.5 1-124.1 29.1-165.7 73.3C2107.4 67.4 2022.2-2.1 1923 0c-2.2 0-4.3.1-6.5.2-85.7 4.5-156.1 61.2-182.3 137.7-61.7-36.8-134.6-56.3-211.8-52.2-101.9 5.4-192.2 50.9-256.4 120.4-45.7-21.9-97.4-33-151.6-30.2-20 1.1-39.4 4-58.1 8.5-79.2-95-200.6-152.7-333.5-145.7-113.7 6-214 58.2-283.6 137.4-23.7-4.7-48.4-6.6-73.6-5.3-81.9 4.3-154.2 41.6-204.7 98.4-4.6 4.8-9.1 9.7-13.3 14.9-7.6 9.1-14.6 18.8-21 28.9-13.3-13.4-28.6-24.4-45.1-33.1-25-13-52.8-20.4-81.5-21V453h4251.9V258.8c-47.6 1-93.1 20.5-126.6 54.1z" fill="#e2f3fd"/></svg>