<svg xmlns="http://www.w3.org/2000/svg" width="35" height="35"><style>.st0{fill:#757575}</style><path id="f_1_" class="st0" d="M18.661 25v-6.842h2.297l.344-2.667h-2.641v-1.702c0-.772.214-1.298 1.322-1.298l1.412-.001v-2.385A19.03 19.03 0 0 0 19.337 10c-2.036 0-3.43 1.243-3.43 3.525v1.966h-2.303v2.667h2.303V25h2.754z"/><path class="st0" d="M17.5.875c9.167 0 16.625 7.458 16.625 16.625S26.667 34.125 17.5 34.125.875 26.667.875 17.5 8.333.875 17.5.875m0-.875C7.835 0 0 7.835 0 17.5S7.835 35 17.5 35 35 27.165 35 17.5 27.165 0 17.5 0z"/></svg>