<svg data-name="US UK Download on the" xmlns="http://www.w3.org/2000/svg" viewBox="0 0 135 35.35"><path d="M129 33.16H6.15a3.74 3.74 0 0 1-3.75-3.71V5.31a3.75 3.75 0 0 1 3.75-3.75H129a3.75 3.75 0 0 1 3.75 3.75v24.14a3.74 3.74 0 0 1-3.75 3.71z" fill="#a6a6a6"/><path d="M132 29.41a3 3 0 0 1-3 3H6.15a3 3 0 0 1-3-3V5.27a3 3 0 0 1 3-3H129a3 3 0 0 1 3 3v24.14z"/><path d="M26.49 17.16a4.55 4.55 0 0 1 2.21-3.83 5 5 0 0 0-3.75-2c-1.58-.16-3.12.95-3.95.95s-2.05-.91-3.4-.87a5 5 0 0 0-4.23 2.53c-1.82 3.08-.47 7.66 1.3 10.15.87 1.22 1.9 2.61 3.24 2.57s1.82-.83 3.4-.83 2 .83 3.4.79 2.29-1.22 3.12-2.49a9.5 9.5 0 0 0 1.42-2.84 4.53 4.53 0 0 1-2.76-4.13zM23.92 9.7A4.54 4.54 0 0 0 25 6.46 4.64 4.64 0 0 0 22 8a4.3 4.3 0 0 0-1.07 3.12 4 4 0 0 0 2.99-1.42zm22.44 16.75h-1.54l-.2-4.15c-.08-1.9-.16-3.28-.12-4.19-.32 1.18-.71 2.41-1.15 3.75l-1.62 4.5h-1.22l-1.42-4.42c-.43-1.34-.75-2.61-1-3.83 0 1.5-.12 2.92-.16 4.27l-.24 4.07h-1.5l.67-10h2.05l1.42 4.31q.53 1.6.95 3.44c.32-1.26.63-2.41 1-3.44l1.5-4.31h2.02zm6.99 0h-1.42l-.12-.83a2.4 2.4 0 0 1-2.09 1 2 2 0 0 1-2.17-2.09 2.24 2.24 0 0 1 1.11-2 5.75 5.75 0 0 1 3.08-.67v-.12c0-.95-.51-1.42-1.5-1.42a3.2 3.2 0 0 0-1.86.51l-.38-1.1a4.8 4.8 0 0 1 2.45-.63c1.86 0 2.8 1 2.8 3v2.65a9.92 9.92 0 0 0 .1 1.7zM51.69 24v-1.11c-1.78 0-2.65.43-2.65 1.46a1 1 0 0 0 1.11 1.11 1.83 1.83 0 0 0 1-.32 1.42 1.42 0 0 0 .55-.83zm8.37-4.55l-.32 1.22a3.09 3.09 0 0 0-1.38-.28 2 2 0 0 0-1.66.71 2.68 2.68 0 0 0-.59 1.78 2.55 2.55 0 0 0 .63 1.82 2.24 2.24 0 0 0 1.62.67 3.84 3.84 0 0 0 1.46-.28l.24 1.18a4.77 4.77 0 0 1-2 .36 3.4 3.4 0 0 1-2.61-1 3.71 3.71 0 0 1-1-2.65 3.69 3.69 0 0 1 1.07-2.73 3.75 3.75 0 0 1 2.8-1.07 3.43 3.43 0 0 1 1.74.27zm11.74 7h-1.66l-.95-2.92h-3.24l-.87 2.92h-1.66l3.2-10h2zm-2.89-4.15l-.83-2.61c-.08-.28-.24-.87-.51-1.86a18.37 18.37 0 0 1-.47 1.86l-.83 2.61zm11.14.47a4 4 0 0 1-1 2.88 2.87 2.87 0 0 1-2.21.95 2.27 2.27 0 0 1-2.05-1v3.79h-1.61v-7.76c0-.75 0-1.54-.08-2.37h1.38l.08 1.15A2.6 2.6 0 0 1 77 19.14a2.73 2.73 0 0 1 2.13 1 3.66 3.66 0 0 1 .92 2.63zm-1.62.08a3 3 0 0 0-.43-1.74 1.62 1.62 0 0 0-1.38-.71 1.56 1.56 0 0 0-1.07.39 2 2 0 0 0-.63 1 2.92 2.92 0 0 0-.08.47v1.18a1.89 1.89 0 0 0 .47 1.3 1.64 1.64 0 0 0 1.26.55 1.57 1.57 0 0 0 1.38-.71 3 3 0 0 0 .48-1.73zm9.84-.08a4 4 0 0 1-1 2.88 2.87 2.87 0 0 1-2.21.95 2.16 2.16 0 0 1-2-1v3.79h-1.63V19.26h1.38l.08 1.15a2.6 2.6 0 0 1 2.41-1.26 2.73 2.73 0 0 1 2.13 1 4 4 0 0 1 .84 2.62zm-1.62.08a3 3 0 0 0-.47-1.74 1.62 1.62 0 0 0-1.38-.71 1.56 1.56 0 0 0-1.07.39 2 2 0 0 0-.63 1 2.92 2.92 0 0 0-.08.47v1.18a1.89 1.89 0 0 0 .47 1.3 1.64 1.64 0 0 0 1.26.55 1.57 1.57 0 0 0 1.38-.71 2.72 2.72 0 0 0 .52-1.73zm10.86.79a2.6 2.6 0 0 1-.87 2.05 3.83 3.83 0 0 1-2.73.87 4.5 4.5 0 0 1-2.57-.63l.36-1.34a4.26 4.26 0 0 0 2.29.63 2.25 2.25 0 0 0 1.42-.39 1.3 1.3 0 0 0 .51-1.11 1.4 1.4 0 0 0-.39-1 4 4 0 0 0-1.38-.75q-2.6-.97-2.6-2.87a2.55 2.55 0 0 1 .91-2 3.65 3.65 0 0 1 2.45-.79 4.76 4.76 0 0 1 2.25.47l-.39 1.3a3.75 3.75 0 0 0-1.9-.47 1.91 1.91 0 0 0-1.3.39 1.14 1.14 0 0 0-.39.91 1.25 1.25 0 0 0 .47 1 5.35 5.35 0 0 0 1.46.75 4.77 4.77 0 0 1 1.89 1.2 3.35 3.35 0 0 1 .51 1.78zm5.25-3.16H101V24c0 .87.32 1.34.95 1.34a3.54 3.54 0 0 0 .71-.08v1.22a3.44 3.44 0 0 1-1.22.2 1.85 1.85 0 0 1-1.46-.59 2.84 2.84 0 0 1-.51-1.94v-3.63h-1v-1.18h1V18l1.58-.47v1.78h1.74l-.08 1.15zm7.94 2.33a4 4 0 0 1-.95 2.73 3.46 3.46 0 0 1-2.61 1.11 3.3 3.3 0 0 1-2.53-1 3.82 3.82 0 0 1-.95-2.65 4 4 0 0 1 .95-2.73 3.67 3.67 0 0 1 5.13 0 3.59 3.59 0 0 1 .96 2.54zm-1.66 0a3.28 3.28 0 0 0-.43-1.7 1.55 1.55 0 0 0-1.42-.87 1.56 1.56 0 0 0-1.46.87 3.43 3.43 0 0 0-.43 1.74 3.28 3.28 0 0 0 .43 1.7 1.6 1.6 0 0 0 1.46.87 1.55 1.55 0 0 0 1.42-.87 3.54 3.54 0 0 0 .39-1.7zm6.84-2.13a2.09 2.09 0 0 0-.51 0 1.51 1.51 0 0 0-1.3.63 2.33 2.33 0 0 0-.39 1.42v3.75h-1.58v-7.15h1.38l.08 1.38a2.4 2.4 0 0 1 .79-1.15 2.11 2.11 0 0 1 1.15-.39 1.22 1.22 0 0 1 .39 0v1.5zm7.12 1.85a3.84 3.84 0 0 1 0 .71h-4.78a1.91 1.91 0 0 0 .71 1.62 2.44 2.44 0 0 0 1.58.51 5.12 5.12 0 0 0 1.94-.36l.24 1.11a6.25 6.25 0 0 1-2.41.43 3.4 3.4 0 0 1-2.61-1 3.68 3.68 0 0 1-.95-2.65 4.07 4.07 0 0 1 .87-2.69A3.11 3.11 0 0 1 120 19.1a2.66 2.66 0 0 1 2.33 1.15 3.91 3.91 0 0 1 .67 2.28zm-1.54-.43a2.1 2.1 0 0 0-.32-1.22 1.43 1.43 0 0 0-1.26-.67 1.49 1.49 0 0 0-1.26.63 2.23 2.23 0 0 0-.47 1.22h3.32zM41.06 9.46a2.57 2.57 0 0 1-.83 2.09 3.36 3.36 0 0 1-2.21.67 9.34 9.34 0 0 1-1.18-.08V7.09A8 8 0 0 1 38.26 7a3.11 3.11 0 0 1 2.05.59 2.33 2.33 0 0 1 .75 1.87zm-.87 0a1.89 1.89 0 0 0-.47-1.38 1.89 1.89 0 0 0-1.38-.47 3.41 3.41 0 0 0-.67 0v3.87h.55a1.94 1.94 0 0 0 1.46-.51 2.18 2.18 0 0 0 .52-1.47zm5.5.83a2.13 2.13 0 0 1-.47 1.42 1.71 1.71 0 0 1-1.38.55 1.67 1.67 0 0 1-1.3-.55 2 2 0 0 1-.47-1.38 1.91 1.91 0 0 1 .51-1.42 1.82 1.82 0 0 1 1.34-.55 1.67 1.67 0 0 1 1.3.55 2 2 0 0 1 .47 1.38zm-.83 0a1.5 1.5 0 0 0-.24-.87.78.78 0 0 0-.75-.42.85.85 0 0 0-.75.43 1.64 1.64 0 0 0-.24.91 1.5 1.5 0 0 0 .24.87.81.81 0 0 0 .75.43.89.89 0 0 0 .75-.43 1.64 1.64 0 0 0 .24-.92zm7.03-1.86l-1.15 3.71H50l-.47-1.62c-.12-.39-.24-.79-.32-1.18a6.58 6.58 0 0 1-.32 1.18l-.51 1.62h-.75l-1.11-3.71h.87l.43 1.78c.08.43.16.83.2 1.22.08-.32.16-.71.32-1.18l.51-1.78h.67l.48 1.74a4.67 4.67 0 0 1 .32 1.22c0-.39.16-.79.24-1.22l.43-1.74h.83zm4.3 3.76h-.83v-2.14c0-.67-.24-1-.75-1a.71.71 0 0 0-.59.28 1 1 0 0 0-.24.63v2.21H53V9.5a10.36 10.36 0 0 0 0-1.07h.71v.59a.93.93 0 0 1 .43-.43 1.26 1.26 0 0 1 .75-.2 1.16 1.16 0 0 1 .87.36 1.65 1.65 0 0 1 .43 1.25v2.21zm2.29 0h-.83V6.73h.83zm4.86-1.9a2.13 2.13 0 0 1-.47 1.42 1.71 1.71 0 0 1-1.38.55 1.67 1.67 0 0 1-1.3-.55 2 2 0 0 1-.47-1.38 1.91 1.91 0 0 1 .51-1.42 1.82 1.82 0 0 1 1.34-.55 1.67 1.67 0 0 1 1.3.55 2 2 0 0 1 .47 1.38zm-.83 0a1.5 1.5 0 0 0-.24-.87.78.78 0 0 0-.74-.42.85.85 0 0 0-.75.43 1.64 1.64 0 0 0-.24.91 1.5 1.5 0 0 0 .24.87.81.81 0 0 0 .75.43.89.89 0 0 0 .75-.43 1.64 1.64 0 0 0 .23-.92zm4.86 1.9h-.75l-.08-.43a1.25 1.25 0 0 1-1.11.51 1.16 1.16 0 0 1-.87-.36 1 1 0 0 1-.28-.75 1.15 1.15 0 0 1 .55-1 3.08 3.08 0 0 1 1.62-.36v-.1a.7.7 0 0 0-.79-.75 1.7 1.7 0 0 0-1 .28l-.16-.55a2.61 2.61 0 0 1 1.26-.32c1 0 1.46.51 1.46 1.54v1.38c.07.39.11.67.15.91zm-.87-1.3v-.55c-.91 0-1.38.24-1.38.75a.49.49 0 0 0 .16.43.7.7 0 0 0 .39.16.79.79 0 0 0 .51-.16.75.75 0 0 0 .28-.43.36.36 0 0 0 .04-.21zm5.57 1.3h-.75v-.59a1.19 1.19 0 0 1-1.18.67 1.35 1.35 0 0 1-1.14-.52 2.14 2.14 0 0 1-.43-1.38A2.17 2.17 0 0 1 69 8.91a1.48 1.48 0 0 1 1.15-.51 1.1 1.1 0 0 1 1.07.51V6.77H72v4.38a8.59 8.59 0 0 0 .07 1.04zm-.87-1.58V10a.59.59 0 0 0 0-.28 1 1 0 0 0-.32-.51.94.94 0 0 0-.55-.2.8.8 0 0 0-.71.36 1.92 1.92 0 0 0-.24 1 1.64 1.64 0 0 0 .24.91.88.88 0 0 0 1.38 0 1 1 0 0 0 .2-.67zm7.94-.32a2.13 2.13 0 0 1-.47 1.42 1.71 1.71 0 0 1-1.38.55 1.67 1.67 0 0 1-1.3-.55 2 2 0 0 1-.47-1.38A1.91 1.91 0 0 1 76 8.91a1.82 1.82 0 0 1 1.34-.55 1.67 1.67 0 0 1 1.3.55 2 2 0 0 1 .5 1.38zm-.87 0a1.5 1.5 0 0 0-.27-.87.78.78 0 0 0-.71-.42.85.85 0 0 0-.75.43 1.64 1.64 0 0 0-.24.91 1.5 1.5 0 0 0 .24.87.81.81 0 0 0 .75.43.89.89 0 0 0 .71-.44 1.64 1.64 0 0 0 .27-.91zm5.34 1.9h-.83v-2.14c0-.67-.24-1-.75-1a.71.71 0 0 0-.59.28 1 1 0 0 0-.24.63v2.21h-.83V9.5a10.36 10.36 0 0 0 0-1.07H81v.59a.93.93 0 0 1 .43-.43 1.26 1.26 0 0 1 .75-.2 1.16 1.16 0 0 1 .87.36 1.65 1.65 0 0 1 .56 1.25zm5.57-3.12h-.91v1.82c0 .47.16.67.47.67a.88.88 0 0 0 .36 0v.63a1.54 1.54 0 0 1-.63.08 1 1 0 0 1-.75-.32 1.63 1.63 0 0 1-.28-1V9.07h-.55v-.64h.55v-.67l.83-.24v.91h.91v.63zm4.42 3.12h-.83v-2.14c0-.67-.24-1-.75-1a.79.79 0 0 0-.79.59.77.77 0 0 0 0 .32v2.25h-.83V6.73h.83V9a1.27 1.27 0 0 1 1.11-.59 1.16 1.16 0 0 1 .87.36A1.75 1.75 0 0 1 93.6 10zm4.27-2.06a1.22 1.22 0 0 1 0 .39h-2.53a1 1 0 0 0 .36.83 1.3 1.3 0 0 0 .83.28 2.59 2.59 0 0 0 1-.16l.12.59a3 3 0 0 1-1.26.24 1.67 1.67 0 0 1-1.39-.51 2 2 0 0 1-.47-1.38A2 2 0 0 1 95 9a1.58 1.58 0 0 1 1.3-.59 1.38 1.38 0 0 1 1.25.59 1.54 1.54 0 0 1 .32 1.13zm-.79-.2a1.08 1.08 0 0 0-.16-.63.73.73 0 0 0-.67-.36.83.83 0 0 0-.67.36 1.24 1.24 0 0 0-.24.63z" fill="#fff"/></svg>