<svg id="Lager_1" xmlns="http://www.w3.org/2000/svg" viewBox="0 0 50 50"><style>.st0{fill:#2e2e2e}</style><path class="st0" d="M42.5 6H32.2c-1 0-1.2-1-1.2-1-.6-2.8-3-5-6-5s-5.4 2.2-5.9 5c0 0-.2 1-1.2 1H7.5c-2.2 0-4 1.8-4 4v27l13 13h26c2.2 0 4-1.8 4-4V10c0-2.2-1.8-4-4-4zM25 3.8c1.1 0 2 .9 2 2s-.9 2-2 2-2-.9-2-2 .9-2 2-2zM42 45H19V34H8V11h3.5v5h27v-5H42v34zM15.2 22.2h19.6"/><path class="st0" d="M34.8 22.4H15.2c-.1 0-.2-.1-.2-.2s.1-.2.2-.2h19.6c.1 0 .2.1.2.2s-.1.2-.2.2zm-19.6 6.8h19.6m0 .2H15.2c-.1 0-.2-.1-.2-.2s.1-.2.2-.2h19.6c.1 0 .2.1.2.2s-.1.2-.2.2zm-11.6 6.8h11.6m0 .2H23.2c-.1 0-.2-.1-.2-.2s.1-.2.2-.2h11.6c.1 0 .2.1.2.2s-.1.2-.2.2z"/></svg>