<svg xmlns="http://www.w3.org/2000/svg" width="35" height="35"><style>.st0{fill:#757575}</style><path class="st0" d="M15.033 24a9.293 9.293 0 0 1-5.031-1.474 6.585 6.585 0 0 0 4.859-1.359 3.286 3.286 0 0 1-3.066-2.279 3.301 3.301 0 0 0 1.482-.056 3.284 3.284 0 0 1-2.633-3.218v-.041a3.27 3.27 0 0 0 1.487.41 3.28 3.28 0 0 1-1.46-2.732c0-.601.162-1.165.444-1.65a9.317 9.317 0 0 0 6.764 3.429 3.282 3.282 0 0 1 5.593-2.994 6.563 6.563 0 0 0 2.084-.796 3.294 3.294 0 0 1-1.443 1.816 6.555 6.555 0 0 0 1.885-.517 6.665 6.665 0 0 1-1.638 1.699c.006.141.009.282.009.425.001 4.336-3.3 9.337-9.336 9.337"/><path class="st0" d="M17.5.875c9.167 0 16.625 7.458 16.625 16.625S26.667 34.125 17.5 34.125.875 26.667.875 17.5 8.333.875 17.5.875m0-.875C7.835 0 0 7.835 0 17.5S7.835 35 17.5 35 35 27.165 35 17.5 27.165 0 17.5 0z"/></svg>